<svg xmlns="http://www.w3.org/2000/svg" viewBox="0 0 1000 206.4"><path d="M87.1.3c.8.1 2.2.2 4.2.5 2.1.2 4.4.7 6.9 1.4s5.1 1.6 7.7 2.9c2.6 1.2 4.8 2.9 6.7 4.9 1.8 2 3 4.5 3.7 7.4.6 2.9.3 6.4-1.1 10.4-1.1 3-2.4 5.6-3.9 7.9s-3.3 4.2-5.2 5.9c-1.9 1.7-3.9 3.1-6 4.2s-4.2 2.1-6.2 2.8c-4.7 1.7-9.8 2.7-15.2 2.9l-20.6.1-2.9 8.7h11.3L59.7 80H1.2L8 60.3h11.4l13.9-40.4H21.7L28.5.2h58.6v.1zM63.4 35.5h10.9l.1-.1c1.1-.1 2.2-.4 3.2-1 .8-.5 1.7-1.3 2.6-2.4.9-1.1 1.8-2.6 2.5-4.6.6-1.8.8-3.2.6-4.2-.2-1-.6-1.7-1.1-2.3-.7-.5-1.5-.9-2.5-1H68.8l-5.4 15.6zM174.2 80.9c-7.4 0-13.6-.8-18.6-2.5-5-1.7-9.1-3.9-12.2-6.5-3.1-2.7-5.5-5.7-7-9-1.6-3.3-2.6-6.6-3.1-9.9-.5-3.3-.6-6.4-.2-9.3.3-2.9.8-5.3 1.5-7.2 2-6 4.9-11.3 8.6-15.8s8-8.3 12.9-11.3c4.8-3 10.1-5.3 15.9-6.9C177.7 1 183.7.2 189.8.2h2.6c7.4 0 13.6.8 18.6 2.5 5 1.7 9.1 3.9 12.3 6.5 3.2 2.7 5.5 5.7 7 9s2.6 6.6 3 9.9c.5 3.3.5 6.4.2 9.3-.4 2.9-.9 5.3-1.5 7.2-2 6-4.9 11.3-8.6 15.8-3.7 4.5-8 8.3-12.8 11.3-4.8 3-10.1 5.3-15.8 6.9-5.7 1.5-11.6 2.3-17.7 2.3h-2.9zM172 40c-1 4.3-1.4 8.1-1.4 11.4 0 1.4.1 2.8.4 4.2.3 1.4.7 2.6 1.2 3.7.6 1.1 1.3 1.9 2.3 2.5.9.6 2.2.9 3.7.9 1.4 0 2.6-.3 3.9-1 1.2-.6 2.4-1.5 3.4-2.5s2-2.2 2.8-3.4c.9-1.3 1.6-2.6 2.3-3.9 1.6-3.1 2.9-6.6 3.9-10.7.9-4.2 1.3-8 1.2-11.4 0-1.4-.1-2.8-.3-4.2-.2-1.4-.6-2.6-1.2-3.6-.6-1.1-1.3-1.9-2.3-2.5-1-.6-2.2-1-3.6-1s-2.6.3-3.8 1c-1.2.6-2.3 1.5-3.3 2.5s-2 2.2-2.8 3.4c-.9 1.3-1.6 2.6-2.3 3.9-1.7 3.2-3 6.7-4.1 10.7zM366.1 45.2l-4.2 13.6c-1.8 4.1-4 7.7-6.6 10.8-1.1 1.4-2.4 2.7-3.8 4-1.4 1.3-3 2.5-4.7 3.5-1.7 1-3.6 1.8-5.7 2.4-2.1.6-4.3.9-6.7.9-4.8 0-8.6-.8-11.5-2.5-2.9-1.7-5-3.8-6.5-6.4-1.5-2.6-2.3-5.4-2.6-8.5-.3-3.1-.3-6-.1-8.8.2-1.7 0-2.9-.6-3.8-.5-.9-1.2-1.5-1.9-1.9-.8-.5-1.8-.7-2.9-.8h-8L296 60.1h13.1l-6.9 20.4h-60.1l6.8-20.4h11.5L273.9 21h-11.5l7-20.5h58.5c4.8 0 9.5.3 13.9.8 4.5.6 8.2 1.7 11.3 3.4 3 1.7 5.1 4.1 6.3 7.3 1.1 3.2.8 7.3-1 12.4-1.5 4.5-3.7 8.3-6.7 11.5s-6.1 5.8-9.5 8c.7.3 1.3.6 1.9.9l1.5 1.2c.5.5.8 1 1 1.7.3 1.2.4 2.5.2 3.8-.2 1.3-.3 2.5-.3 3.6s.1 2 .5 2.7c.4.7 1.3 1.1 2.7 1.1 1.4 0 2.6-.7 3.7-2.1 1-1.4 1.9-2.9 2.5-4.7.8-2 1.5-4.2 2-6.9h8.2zm-49.6-9c.9-.3 2-1 3.4-2 1.4-1.1 2.6-3 3.6-5.7.6-1.8.8-3.2.6-4.2-.2-1-.6-1.7-1.1-2.3-.7-.5-1.5-.9-2.5-1h-11.2l-5.2 15.2h12.4zM491.1 20.1L486 34.8h-27.1L464 20h-6.3l-13.9 40.3h11.5L448.5 80H390l6.8-19.7h11.5l13.9-40.2h-6.3l-5.2 14.7h-27.1L395.4.3h102.4l-6.7 19.8zM612.7 45.2l-11.8 34.5H498.5l6.8-19.7h11.4l13.9-40.4h-11.5L525.9 0h58.5l-6.8 19.6h-11.5L552.2 60h28.3l5.1-14.8h27.1zM720.9 60.6H738l-6.9 19.7H672l6.8-19.7h8.6l-.5-11.4h-19.7l-7.1 11.4h8.8l-6.8 19.7h-39.3l6.8-19.7h10.3l36.7-59.5h42l2.3 59.5zm-47.1-21.9h12.7l-.7-19.5-12 19.5zM883.2 21.1h-13.8L849 80.3h-35.8l-10-59.1-13.5 39.3h10.8l-6.9 19.7h-43.7l6.8-19.7h12.7L782.9 21h-12.7L777 1.3h50.7l9.4 55.1L849.3 21h-9.8l6.8-19.7h43.8l-6.9 19.8zM971.3.7c7.3.4 13.3 2.1 18.1 5.1 2 1.3 3.9 2.9 5.6 4.8 1.7 2 3 4.4 3.9 7.3.9 2.9 1.2 6.3 1 10.1-.2 3.9-1.1 8.4-2.9 13.5-1.7 5.1-3.8 9.6-6.3 13.4-2.5 3.8-5.1 7.1-7.9 9.9-2.8 2.7-5.7 5.1-8.8 6.9-3 1.9-6 3.4-8.8 4.5-6.8 2.7-13.9 4.1-21.3 4.2h-59.1l6.8-19.7h12.5l13.6-40.2h-12.4L912.2.8h59.1zm-31.5 59.9c.1 0 .5 0 1.3-.1s1.8-.3 3.1-.7c1.3-.4 2.7-1 4.3-1.8 1.6-.8 3.2-1.9 4.8-3.4 1.7-1.5 3.2-3.4 4.7-5.7 1.5-2.3 2.8-5.1 3.9-8.4 1.1-3.2 1.7-6 1.7-8.2 0-2.2-.2-4.1-.8-5.6-.6-1.5-1.3-2.7-2.3-3.5-1-.8-2-1.4-2.9-1.9-1-.4-1.9-.7-2.6-.8-.8-.1-1.3-.2-1.4-.2h-.3l-13.6 40.3h.1zM108.7 183.6c-1.4 3.7-3.9 7-7.4 9.9-1.5 1.3-3.3 2.5-5.4 3.7-2.1 1.2-4.5 2.2-7.3 3.1-2.8.9-5.9 1.6-9.4 2.2-3.5.6-7.4.8-11.8.8H0l6.8-19.7h10.8l13.6-40.2H20.6l6.8-19.7h59.2c.3.1 1.4.2 3.2.2 1.8.1 3.9.3 6.3.6s4.8.9 7.3 1.6c2.5.8 4.7 1.9 6.6 3.3 1.9 1.5 3.2 3.3 4 5.6.8 2.3.6 5-.5 8.3-1.7 4.7-3.9 8.5-6.6 11.2-2.7 2.7-5.5 4.7-8.3 6-2.8 1.3-5.3 2.1-7.6 2.4-2.3.3-3.7.5-4.3.5.5 0 1.6 0 3.2.1s3.4.3 5.4.7c2 .4 4.1 1 6.1 1.9 2.1.8 3.8 2 5.3 3.5s2.4 3.4 2.9 5.7c.5 2.3.2 5-.9 8.3zm-55.5 0h11.9c.1 0 .5-.1 1.1-.2.6-.1 1.3-.4 2-.8.8-.4 1.5-1.1 2.3-2 .8-.9 1.4-2.1 2-3.7.6-1.8.8-3.2.7-4.3-.2-1.1-.5-1.8-1-2.4-.6-.6-1.4-1-2.3-1.1H58.1l-4.9 14.5zm13.6-40.3l-5 14.3h12.1c.1 0 .5 0 1.1-.1.6-.1 1.2-.3 1.9-.8s1.4-1.1 2.1-2.1c.8-.9 1.4-2.2 2-3.9.6-1.8.8-3.2.7-4.2-.2-1-.4-1.7-.8-2.3-.5-.5-1.2-.9-2-1H66.8zM244.7 168l-4.2 13.6c-1.8 4.1-4 7.7-6.6 10.8-1.1 1.4-2.4 2.7-3.8 4-1.4 1.3-3 2.5-4.7 3.5-1.7 1-3.6 1.8-5.7 2.4-2.1.6-4.3.9-6.7.9-4.8 0-8.6-.8-11.5-2.5-2.9-1.7-5-3.8-6.5-6.4-1.5-2.6-2.3-5.4-2.6-8.5-.3-3.1-.3-6-.1-8.8.2-1.7 0-2.9-.6-3.8-.5-.9-1.2-1.5-1.9-1.9-.8-.5-1.8-.7-2.9-.8h-8l-4.3 12.4h13.1l-6.9 20.4h-60.1l6.8-20.4H139l13.5-39.1H141l7-20.5h58.5c4.8 0 9.5.3 13.9.8 4.5.6 8.2 1.7 11.3 3.4 3 1.7 5.1 4.1 6.3 7.3 1.1 3.2.8 7.3-1 12.4-1.5 4.5-3.7 8.3-6.6 11.5s-6.1 5.8-9.5 8c.7.3 1.3.6 1.9.9l1.5 1.2c.5.5.8 1 1 1.7.3 1.2.4 2.5.2 3.8-.2 1.3-.3 2.5-.3 3.6s.1 2 .5 2.7c.4.7 1.3 1.1 2.7 1.1 1.4 0 2.6-.7 3.7-2.1 1-1.4 1.9-2.9 2.5-4.7.8-2 1.5-4.2 2-6.9h8.1zm-49.6-9c.9-.3 2-1 3.4-2 1.4-1.1 2.6-3 3.6-5.7.6-1.8.8-3.2.6-4.2-.2-1-.6-1.7-1.1-2.3-.7-.5-1.5-.9-2.5-1h-11.2l-5.2 15.2h12.4zM299.8 203.7c-7.4 0-13.6-.8-18.6-2.5-5-1.7-9.1-3.9-12.2-6.5-3.1-2.7-5.5-5.7-7-9-1.6-3.3-2.6-6.6-3.1-9.9-.5-3.3-.6-6.4-.2-9.3.3-2.9.8-5.3 1.5-7.2 2-6 4.9-11.3 8.6-15.8 3.7-4.5 8-8.3 12.9-11.3 4.8-3 10.1-5.3 15.9-6.9 5.7-1.5 11.7-2.3 17.8-2.3h2.6c7.4 0 13.6.8 18.6 2.5 5 1.7 9.1 3.9 12.3 6.5 3.2 2.7 5.5 5.7 7 9s2.6 6.6 3 9.9c.5 3.3.5 6.4.2 9.3-.4 2.9-.9 5.3-1.5 7.2-2 6-4.9 11.3-8.6 15.8s-8 8.3-12.8 11.3c-4.8 3-10.1 5.3-15.8 6.9-5.7 1.5-11.6 2.3-17.7 2.3h-2.9zm-2.2-40.9c-1 4.3-1.4 8.1-1.4 11.4 0 1.4.1 2.8.4 4.2.3 1.4.7 2.6 1.2 3.7.6 1.1 1.3 1.9 2.3 2.5.9.6 2.2.9 3.7.9 1.4 0 2.6-.3 3.9-1 1.2-.6 2.4-1.5 3.4-2.5s2-2.2 2.8-3.4c.9-1.3 1.6-2.6 2.3-3.9 1.6-3.1 2.9-6.7 3.9-10.7.9-4.2 1.3-8 1.2-11.4 0-1.4-.1-2.8-.3-4.2-.2-1.4-.6-2.6-1.2-3.6-.6-1.1-1.3-1.9-2.3-2.5-1-.6-2.2-1-3.6-1s-2.6.3-3.8 1c-1.2.6-2.3 1.5-3.3 2.5s-2 2.2-2.8 3.4c-.9 1.3-1.6 2.6-2.3 3.9-1.6 3.2-3 6.7-4.1 10.7zM484.3 142.9l-5.1 14.8h-27.1l5.1-14.8h-6.3L437 183.1h11.5l-6.8 19.7h-58.6l6.8-19.7h11.5l13.9-40.2H409l-5.1 14.8h-27.1l11.8-34.5H491l-6.7 19.7zM612.1 143l-13.9 40.2h11.5l-6.8 19.7h-53.5l6.8-19.7h6.5l4.8-14.4h-23l-5 14.4h6.5l-6.8 19.7h-53.5l6.8-19.7H504l13.9-40.2h-11.5l6.8-19.7h53.5L560 143h-6.5l-5 14.4h23l5-14.4h-6.4l6.8-19.7h53.5l-6.8 19.7h-11.5zM741 168.8l-11.6 34.5-102.4.3 6.7-19.6 11.5-.1 13.6-40.4-11.5.1 6.7-19.7 102.5-.2-11.5 34.2-27.2.2 5-14.9-28.3.2-4.1 12.1 21.6-.1-5.4 16.1-21.6.1-4.2 12.1 28.1-.1 5-14.7 27.1-.1zM880 168l-4.2 13.6c-1.8 4.1-4 7.7-6.7 10.8-1.1 1.4-2.4 2.7-3.8 4-1.4 1.3-3 2.5-4.7 3.5-1.7 1-3.6 1.8-5.7 2.4-2.1.6-4.3.9-6.7.9-4.8 0-8.6-.8-11.5-2.5-2.9-1.7-5-3.8-6.5-6.4s-2.3-5.4-2.6-8.5c-.3-3.1-.3-6-.1-8.8.1-1.7 0-2.9-.6-3.8-.5-.9-1.2-1.5-1.9-1.9-.8-.5-1.8-.7-2.9-.8h-8l-4.3 12.4h13.1l-6.9 20.4h-60.1l6.8-20.4h11.5l13.5-39.1h-11.5l7-20.5h58.5c4.8 0 9.4.3 13.9.8 4.5.6 8.2 1.7 11.3 3.4 3 1.7 5.1 4.1 6.3 7.3s.8 7.3-1 12.4c-1.5 4.5-3.7 8.3-6.6 11.5s-6.1 5.8-9.5 8c.7.3 1.3.6 1.9.9l1.5 1.2c.5.5.8 1 1 1.7.3 1.2.4 2.5.2 3.8-.2 1.3-.3 2.5-.3 3.6s.1 2 .5 2.7c.4.7 1.3 1.1 2.7 1.1 1.4 0 2.6-.7 3.7-2.1 1-1.4 1.9-2.9 2.5-4.7.8-2 1.5-4.2 2-6.9h8.2zm-49.6-9c.9-.3 2-1 3.4-2 1.4-1.1 2.6-3 3.5-5.7.6-1.8.8-3.2.6-4.2-.2-1-.6-1.7-1.1-2.3-.7-.5-1.5-.9-2.5-1h-11.2l-5.2 15.2h12.5zM970.1 156.7c2.9.9 5.8 2.1 8.6 3.6s5.1 3.4 6.8 5.7c1.8 2.3 2.8 5 3.2 8.1.4 3.1-.4 6.8-2.3 11-2.3 5-4.9 9-8 11.8-3.1 2.9-6.4 5-9.9 6.4-3.5 1.4-7.2 2.3-10.9 2.6-3.7.3-7.3.5-10.9.5-3.2 0-6.5-.5-10-1.5s-6.8-2.1-10-3.4c-3.2-1.3-6-2.5-8.4-3.7-2.4-1.2-4.1-2.1-5-2.6l-2.6 7.7-24.3.2 8.8-25.7h24.2c4.8 3.7 9.3 6.5 13.4 8.5 1.8.9 3.6 1.7 5.4 2.3 1.8.6 3.5.9 5.1 1 1.6 0 3-.2 4.3-.8 1.3-.6 2.3-1.7 3.1-3.2.9-1.9.7-3.4-.5-4.6-1.2-1.2-3.2-2.2-5.8-3-2.6-.8-5.8-1.6-9.4-2.2-3.6-.6-7.4-1.4-11.3-2.3-4.2-1-7.9-2.3-11.1-4.1-3.2-1.8-5.8-3.8-7.7-6.3-2-2.4-3.2-5.1-3.7-8.1s-.2-6.1.9-9.4c1.1-3.3 2.9-6.3 5.2-9 2.4-2.7 5.3-5 8.7-6.9 3.5-1.9 7.4-3.4 11.9-4.5s9.4-1.6 14.8-1.6c4.5 0 8.5.4 11.8 1.2 3.4.8 6.3 1.7 8.7 2.9 2.4 1.1 4.4 2.3 5.9 3.4s2.6 2 3.3 2.7l3.5-10.1h22.2l-9.1 26.8h-22.3c-2.6-4.1-5.5-7-8.7-8.8-3.2-1.8-6.2-2.8-9-3-2.8-.2-5.3.1-7.3 1.1-2.1.9-3.3 2.2-3.8 3.7-.5 1.7-.3 3.1.6 4.2.9 1.2 2.2 2.1 4 2.9 1.8.8 3.9 1.5 6.3 2 2.4.6 4.9 1.1 7.4 1.6 2.6.5 5.1.9 7.5 1.4 2.3.4 4.5.9 6.4 1.5z"/></svg>